#N canvas 226 1128 1099 680 10;
#X declare -path .;
#X declare -path ./common/;
#X declare -path ./blockhead/;
#X declare -path ./rjlib/rj;
#N canvas 112 50 460 662 sequencer 0;
#X obj 195 604 outlet envelope;
#X obj 72 612 mtof;
#X obj 72 631 outlet;
#N canvas 368 1128 454 532 \$1/notes 0;
#X obj 18 6 inlet;
#X obj 18 499 outlet;
#X obj 50 311 tabread \$1/notes;
#X obj 18 212 t f f;
#X obj 324 309 * 12;
#X obj 51 477 +;
#X obj 18 52 mod 16;
#X obj 51 455 + 52;
#X obj 18 271 sel 0;
#X msg 18 293 0;
#X obj 324 264 tabread \$1/octave;
#X obj 51 392 +;
#X obj 51 433 mod 12;
#X obj 18 248 tabread \$1/sequence;
#X obj 50 333 sel 0;
#X msg 50 355 0;
#X obj 113 355 r \$1/rootnote;
#X obj 51 412 + 0;
#X obj 110 382 r \$1/rootnoteoffset;
#X obj 43 184 -;
#X msg 43 163 16;
#X obj 63 52 r \$1/retrograde;
#X obj 43 140 t b f;
#X obj 18 75 pack f 0;
#X msg 18 96 \$2 \$1;
#X obj 18 117 route 0 1;
#X obj 18 29 +;
#X obj 59 6 r \$1/noteshift;
#X obj 50 291 - 1;
#X obj 324 286 - 1;
#X connect 0 0 26 0;
#X connect 2 0 14 0;
#X connect 3 0 13 0;
#X connect 3 1 10 0;
#X connect 4 0 5 1;
#X connect 5 0 1 0;
#X connect 6 0 23 0;
#X connect 7 0 5 0;
#X connect 8 0 9 0;
#X connect 8 1 28 0;
#X connect 9 0 1 0;
#X connect 10 0 29 0;
#X connect 11 0 17 0;
#X connect 12 0 7 0;
#X connect 13 0 8 0;
#X connect 14 0 15 0;
#X connect 14 1 11 0;
#X connect 15 0 1 0;
#X connect 16 0 11 1;
#X connect 17 0 12 0;
#X connect 18 0 17 1;
#X connect 19 0 3 0;
#X connect 20 0 19 0;
#X connect 21 0 23 1;
#X connect 22 0 20 0;
#X connect 22 1 19 1;
#X connect 23 0 24 0;
#X connect 24 0 25 0;
#X connect 25 0 3 0;
#X connect 25 1 22 0;
#X connect 26 0 6 0;
#X connect 27 0 26 1;
#X connect 28 0 2 0;
#X connect 29 0 4 0;
#X restore 26 477 pd \$1/notes;
#X obj 26 498 t f f;
#X obj 195 557 > 0;
#N canvas 375 304 450 300 slide 0;
#X obj 19 13 inlet;
#X obj 19 33 mod 16;
#X obj 19 77 outlet;
#X obj 19 55 tabread \$1/slide;
#X connect 0 0 1 0;
#X connect 1 0 3 0;
#X connect 3 0 2 0;
#X restore 248 525 pd slide;
#X obj 196 582 pack f f;
#X obj 26 520 moses 1;
#X obj 26 453 t f f f;
#N canvas 375 304 450 300 accent 0;
#X obj 19 13 inlet;
#X obj 19 33 mod 16;
#X obj 19 77 outlet;
#X obj 19 55 tabread \$1/accent;
#X connect 0 0 1 0;
#X connect 1 0 3 0;
#X connect 3 0 2 0;
#X restore 332 525 pd accent;
#X obj 55 140 pipe;
#X obj 56 55 mod 2;
#X obj 25 76 swap;
#X obj 25 117 route 0 1;
#X obj 25 96 pack f f;
#X obj 332 604 outlet \$1/accent;
#X obj 25 9 r \$1/tick;
#X obj 121 362 s \$0/tick;
#X obj 361 251 inlet;
#X obj 90 520 * 12;
#X obj 72 541 + 0;
#X obj 120 191 == 0;
#X obj 26 320 spigot 1;
#X obj 58 269 f;
#X obj 120 146 r \$1/sticky;
#X obj 216 146 r \$1/stickyrate;
#X obj 26 164 t f f;
#X obj 58 184 / 1;
#X obj 58 206 int;
#X obj 58 228 change;
#X msg 58 249 bang;
#X obj 120 168 t f f f;
#X obj 166 191 != 0;
#X obj 58 296 spigot 0;
#X obj 112 19 r \$1/swing;
#X obj 124 631 s \$0/notestream;
#X obj 72 583 t f f;
#X obj 26 390 / 1;
#X obj 44 365 r \$1/speed;
#X obj 26 411 int;
#X obj 26 432 change;
#X obj 26 340 t f f;
#X obj 193 19 r \$1/pickswing;
#X obj 166 103 s \$1/swing/set;
#N canvas 588 232 450 300 swang 0;
#X obj 12 8 inlet;
#X obj 144 8 inlet;
#X obj 279 8 inlet;
#X obj 12 57 timer;
#X obj 12 30 t b b;
#X obj 331 261 outlet;
#X obj 14 277 outlet;
#X obj 14 229 f;
#X obj 14 252 *;
#X obj 279 83 sel 0;
#X msg 279 44 bang;
#X obj 279 64 u_seededrandom 10 \$1/seed;
#X obj 279 105 u_seededrandom 2 \$1/seed;
#X obj 279 126 + 1;
#X obj 279 148 * 0.333333;
#X obj 144 30 t b f;
#X obj 279 170 t b f f;
#X obj 12 79 / 2;
#X floatatom 26 114 5 0 0 0 - - -, f 5;
#X msg 331 239 set \$1;
#X msg 356 128 0;
#X connect 0 0 4 0;
#X connect 1 0 15 0;
#X connect 2 0 10 0;
#X connect 3 0 17 0;
#X connect 4 0 3 0;
#X connect 4 1 3 1;
#X connect 7 0 8 0;
#X connect 8 0 6 0;
#X connect 9 0 12 0;
#X connect 9 1 20 0;
#X connect 10 0 11 0;
#X connect 11 0 9 0;
#X connect 12 0 13 0;
#X connect 13 0 14 0;
#X connect 14 0 16 0;
#X connect 15 0 7 0;
#X connect 15 1 8 1;
#X connect 16 0 7 0;
#X connect 16 1 8 1;
#X connect 16 2 19 0;
#X connect 17 0 7 1;
#X connect 17 0 18 0;
#X connect 19 0 5 0;
#X connect 20 0 16 0;
#X restore 121 77 pd swang;
#X obj 25 35 t f f f;
#X obj 72 562 +;
#X obj 148 501 r \$1/finetune;
#X obj 148 523 / 127;
#X connect 1 0 2 0;
#X connect 3 0 4 0;
#X connect 4 0 8 0;
#X connect 4 1 5 0;
#X connect 5 0 7 0;
#X connect 6 0 7 1;
#X connect 7 0 0 0;
#X connect 8 1 21 0;
#X connect 9 0 3 0;
#X connect 9 1 6 0;
#X connect 9 2 10 0;
#X connect 10 0 16 0;
#X connect 11 0 27 0;
#X connect 12 0 13 1;
#X connect 13 0 15 0;
#X connect 13 1 15 1;
#X connect 14 0 27 0;
#X connect 14 1 11 0;
#X connect 15 0 14 0;
#X connect 17 0 46 0;
#X connect 19 0 20 0;
#X connect 20 0 21 1;
#X connect 21 0 47 0;
#X connect 22 0 23 1;
#X connect 23 0 42 0;
#X connect 24 0 34 0;
#X connect 25 0 32 0;
#X connect 26 0 28 1;
#X connect 27 0 23 0;
#X connect 27 1 28 0;
#X connect 28 0 29 0;
#X connect 29 0 30 0;
#X connect 30 0 31 0;
#X connect 31 0 24 0;
#X connect 32 0 22 0;
#X connect 32 1 24 1;
#X connect 32 2 33 0;
#X connect 33 0 34 1;
#X connect 34 0 42 0;
#X connect 35 0 45 1;
#X connect 37 0 1 0;
#X connect 37 1 36 0;
#X connect 38 0 40 0;
#X connect 39 0 38 1;
#X connect 40 0 41 0;
#X connect 41 0 9 0;
#X connect 42 0 38 0;
#X connect 42 1 18 0;
#X connect 43 0 45 2;
#X connect 45 0 11 1;
#X connect 45 1 44 0;
#X connect 46 0 13 0;
#X connect 46 1 12 0;
#X connect 46 2 45 0;
#X connect 47 0 37 0;
#X connect 48 0 49 0;
#X connect 49 0 47 1;
#X restore 102 81 pd sequencer;
#X obj 116 381 vcf~;
#X obj 141 361 t f f;
#X obj 116 405 *~;
#X obj 173 381 *~ 0.6;
#X obj 47 304 line~;
#N canvas 104 283 450 300 envelope 0;
#X obj 12 10 inlet;
#X obj 12 275 outlet~;
#X obj 12 242 vline~;
#X obj 340 17 inlet decay;
#X obj 220 242 line;
#X obj 220 270 outlet;
#X obj 12 53 unpack f f;
#X obj 79 74 * 0.5;
#X obj 12 129 150;
#X obj 13 75 sel 1;
#X obj 12 149 pack f f;
#X obj 12 174 t a a;
#X msg 13 210 1 7 \, \$2 \$1 7;
#X msg 219 217 1 \, \$2 \$1;
#X obj 12 31 t a a;
#X obj 163 54 ||;
#X obj 164 108 sel 0;
#X msg 164 129 0 7;
#X connect 0 0 14 0;
#X connect 2 0 1 0;
#X connect 3 0 8 1;
#X connect 4 0 5 0;
#X connect 6 0 9 0;
#X connect 6 1 7 0;
#X connect 7 0 10 1;
#X connect 8 0 10 0;
#X connect 9 0 8 0;
#X connect 10 0 11 0;
#X connect 11 0 12 0;
#X connect 11 1 13 0;
#X connect 12 0 2 0;
#X connect 13 0 4 0;
#X connect 14 0 6 0;
#X connect 14 1 15 0;
#X connect 15 0 16 0;
#X connect 16 0 17 0;
#X connect 17 0 2 0;
#X connect 17 0 4 0;
#X restore 165 255 pd envelope;
#X obj 116 293 *~;
#X obj 240 305 * 5;
#X obj 240 329 +;
#X text 354 287 base rez;
#N canvas 0 50 450 300 (subpatch) 0;
#X array \$1/slide 16 float 2;
#X coords 0 1 15 0 50 25 1 0 0;
#X restore 524 185 graph;
#N canvas 0 50 450 300 (subpatch) 0;
#X array \$1/accent 16 float 2;
#X coords 0 1 15 0 50 25 1;
#X restore 586 185 graph;
#N canvas 0 50 450 300 (subpatch) 0;
#X array \$1/octave 17 float 2;
#X coords 0 1 15 -1 50 25 1;
#X restore 654 185 graph;
#N canvas 0 50 450 300 (subpatch) 0;
#X array \$1/sequence 16 float 2;
#X coords 0 4 16 0 50 25 1;
#X restore 723 184 graph;
#X obj 165 299 *~ 12;
#X obj 128 336 mtof~;
#N canvas 45 151 450 300 portamento 0;
#X obj 11 9 inlet;
#X obj 85 10 inlet;
#X obj 85 31 unpack f f;
#X obj 11 121 line~;
#X obj 11 145 outlet~;
#X obj 240 8 inlet decay;
#X obj 11 101 pack f f;
#X obj 177 32 / 2;
#X obj 152 52 * 75;
#X connect 0 0 6 0;
#X connect 1 0 2 0;
#X connect 2 1 8 0;
#X connect 3 0 4 0;
#X connect 5 0 7 0;
#X connect 6 0 3 0;
#X connect 7 0 8 1;
#X connect 8 0 6 1;
#X restore 102 119 pd portamento;
#X obj 116 425 hip~ 5;
#X obj 278 135 + 1;
#X obj 278 115 + 50;
#X obj 259 254 + 1;
#X obj 259 277 * 5;
#X obj 196 281 * 12;
#N canvas 2 50 450 300 squaresaw 0;
#X obj 70 192 outlet~;
#X obj 213 72 != 0;
#X obj 167 73 == 0;
#X obj 70 17 inlet~;
#X obj 184 192 outlet~;
#X obj 261 19 r \$1/pickwave;
#N canvas 615 379 450 300 square 0;
#X obj 12 10 inlet~;
#X obj 12 92 s_blsquare;
#X msg 68 30 0.5;
#X obj 68 10 loadbang;
#X obj 12 114 outlet~;
#X obj 141 71 switch~;
#X obj 141 10 inlet;
#X obj 12 63 *~;
#X obj 141 32 t f f;
#X connect 0 0 7 0;
#X connect 1 0 4 0;
#X connect 2 0 1 1;
#X connect 3 0 2 0;
#X connect 6 0 8 0;
#X connect 7 0 1 0;
#X connect 8 0 5 0;
#X connect 8 1 7 1;
#X restore 185 166 pd square;
#N canvas 341 366 450 300 saw 0;
#X obj 12 90 s_blsaw;
#X obj 12 10 inlet~;
#X obj 12 114 outlet~;
#X obj 141 61 switch~;
#X obj 141 10 inlet;
#X obj 141 32 t f f;
#X obj 12 67 *~;
#X connect 0 0 2 0;
#X connect 1 0 6 0;
#X connect 4 0 5 0;
#X connect 5 0 3 0;
#X connect 5 1 6 1;
#X connect 6 0 0 0;
#X restore 70 165 pd saw;
#X obj 177 49 u_seededrandom 2 \$1/seed;
#X connect 1 0 6 1;
#X connect 2 0 7 1;
#X connect 3 0 7 0;
#X connect 3 0 6 0;
#X connect 5 0 8 0;
#X connect 6 0 4 0;
#X connect 7 0 0 0;
#X connect 8 0 1 0;
#X connect 8 0 2 0;
#X restore 102 149 pd squaresaw;
#X text 324 317 tilt;
#X text 235 353 upsidedown = 100 \, left = 30 \, right = 2;
#X obj 116 446 *~ 0.25;
#X obj 22 260 r \$1/cutoff;
#X obj 289 288 r \$1/rez;
#X obj 102 55 r \$1/globaloctave;
#N canvas 0 50 450 300 (subpatch) 0;
#X array \$1/notes 4 float 2;
#X coords 0 12 4 0 50 25 1 0 0;
#X restore 805 184 graph;
#X obj 210 470 r \$0/notestream;
#X obj 278 72 r \$1/pickdecay;
#X obj 295 331 s \$1/noteenvelope;
#X obj 24 163 s~ \$1/pitch;
#N canvas 238 258 450 300 tablesave 0;
#X obj 8 9 sssad/auto \$1/slide \$1/slide;
#X obj 8 29 sssad/auto \$1/accent \$1/accent;
#X obj 8 49 sssad/auto \$1/octave \$1/octave;
#X obj 8 69 sssad/auto \$1/sequence \$1/sequence;
#X obj 8 89 sssad/auto \$1/notes \$1/notes;
#X obj 8 109 sssad/auto \$1/rootnote \$1/rootnote;
#X restore 952 190 pd tablesave;
#X obj 982 20 declare -path .;
#N canvas 297 77 446 625 pick-accent 0;
#X obj 11 12 inlet;
#X obj 203 320 until;
#X text 320 257 how many accents?;
#X obj 164 276 moses 3;
#X obj 203 297 - 2;
#X obj 31 38 r pickaccent;
#X obj 62 96 symbol \$1;
#X obj 203 365 t f b;
#X obj 203 422 pack f s;
#X obj 256 400 symbol \$1;
#X obj 203 343 u_seededrandom 16 \$1/seed;
#X obj 164 256 u_seededrandom 9 \$1/seed;
#X obj 234 13 table \$1/accent/intermediate 16;
#X msg 62 120 \; \$1/accent/intermediate const 0 \;;
#X msg 203 447 \; \$2/accent/intermediate \$1 1 \;;
#X obj 38 459 until;
#X msg 38 436 16;
#X msg 70 436 0;
#X obj 38 481 f;
#X obj 68 481 + 1;
#X obj 38 503 tabread \$1/accent/intermediate;
#X obj 118 525 t l;
#X obj 38 414 t b b b;
#X obj 38 525 list prepend;
#X obj 11 388 t b b;
#X obj 11 569 list append;
#X msg 11 547 0;
#X obj 11 591 s \$1/accent;
#X obj 28 171 u_seededrandom 3 \$1/seed;
#X obj 11 75 t b b b b;
#X obj 28 193 sel 0;
#X text 38 152 accent first blip?;
#X msg 55 213 bang;
#X obj 55 235 symbol \$1;
#X msg 55 258 \; \$1/accent 0 1 \;;
#X connect 0 0 29 0;
#X connect 1 0 10 0;
#X connect 3 1 4 0;
#X connect 4 0 1 0;
#X connect 5 0 29 0;
#X connect 6 0 13 0;
#X connect 7 0 8 0;
#X connect 7 1 9 0;
#X connect 8 0 14 0;
#X connect 9 0 8 1;
#X connect 10 0 7 0;
#X connect 11 0 3 0;
#X connect 15 0 18 0;
#X connect 16 0 15 0;
#X connect 17 0 18 1;
#X connect 18 0 19 0;
#X connect 18 0 20 0;
#X connect 19 0 18 1;
#X connect 20 0 23 0;
#X connect 21 0 23 1;
#X connect 22 0 16 0;
#X connect 22 1 17 0;
#X connect 22 2 23 1;
#X connect 23 0 21 0;
#X connect 23 0 25 1;
#X connect 24 0 26 0;
#X connect 24 1 22 0;
#X connect 25 0 27 0;
#X connect 26 0 25 0;
#X connect 28 0 30 0;
#X connect 29 0 24 0;
#X connect 29 1 28 0;
#X connect 29 2 11 0;
#X connect 29 3 6 0;
#X connect 30 1 32 0;
#X connect 32 0 33 0;
#X connect 33 0 34 0;
#X restore 590 267 pd pick-accent;
#X obj 485 333 filltable \$1/sequence;
#X obj 643 339 filltable \$1/notes;
#X obj 783 371 s \$1/rootnote;
#X obj 643 317 r \$1/goodnotes;
#X text 315 128 <- how long the notes are;
#X obj 590 242 r \$1/pickaccent;
#N canvas 2 50 450 385 pick-octave 0;
#X obj 44 109 until;
#X msg 44 87 16;
#X obj 44 153 >;
#X obj 50 235 list append;
#X obj 138 231 t l;
#X obj 25 41 t b b b b;
#X obj 25 278 list;
#X text 134 45 how octavy?;
#X obj 25 297 filltable \$1/octave;
#X obj 44 173 sel 0 1;
#X msg 35 194 0;
#X obj 25 12 inlet;
#X obj 44 132 u_seededrandom 100 \$1/seed;
#X obj 67 193 u_seededrandom 3 \$1/seed;
#X obj 65 63 u_seededrandom 50 \$1/seed;
#X connect 0 0 12 0;
#X connect 1 0 0 0;
#X connect 2 0 9 0;
#X connect 3 0 4 0;
#X connect 3 0 6 1;
#X connect 4 0 3 1;
#X connect 5 0 6 0;
#X connect 5 1 1 0;
#X connect 5 2 14 0;
#X connect 5 3 3 1;
#X connect 6 0 8 0;
#X connect 9 0 10 0;
#X connect 9 1 13 0;
#X connect 10 0 3 0;
#X connect 11 0 5 0;
#X connect 12 0 2 0;
#X connect 13 0 3 0;
#X connect 14 0 2 1;
#X restore 701 268 pd pick-octave;
#X obj 486 242 r \$1/pickslide;
#N canvas 184 232 446 334 pick-slide 0;
#X obj 30 143 until;
#X msg 30 121 16;
#X text 118 77 how slidy?;
#X obj 30 187 >;
#X obj 31 217 list append;
#X obj 119 217 t l;
#X obj 11 75 t b b b b;
#X obj 12 244 list;
#X obj 12 273 filltable \$1/slide;
#X obj 11 25 inlet;
#X obj 51 97 u_seededrandom 100 \$1/seed;
#X obj 30 164 u_seededrandom 100 \$1/seed;
#X connect 0 0 11 0;
#X connect 1 0 0 0;
#X connect 3 0 4 0;
#X connect 4 0 5 0;
#X connect 4 0 7 1;
#X connect 5 0 4 1;
#X connect 6 0 7 0;
#X connect 6 1 1 0;
#X connect 6 2 10 0;
#X connect 6 3 4 1;
#X connect 7 0 8 0;
#X connect 9 0 6 0;
#X connect 10 0 3 1;
#X connect 11 0 3 0;
#X restore 486 267 pd pick-slide;
#X obj 701 243 r \$1/pickoctave;
#X text 26 16 Garage Acid Lab \, copyright 2009-2014 Chris McCormick
;
#X obj 210 491 outlet;
#X obj 116 490 throw~ \$1/out;
#X msg 526 457 bang;
#X obj 938 43 declare -path ./common/;
#X obj 526 479 symbol \$1;
#X obj 526 431 loadbang;
#X obj 442 431 r \$1/makenew;
#X obj 485 312 r \$1/newsequence;
#X obj 894 375 r \$1/picksequence;
#X obj 919 88 declare -path ./blockhead/;
#X obj 918 398 r \$1/goodnotes;
#X obj 918 420 list length;
#X obj 278 93 u_seededrandom 200 \$1/seed;
#X obj 931 66 declare -path ./rjlib/rj;
#X obj 894 489 filltable \$1/sequence;
#X obj 935 241 r \$1/picknotes;
#N canvas 2 50 450 300 picknotes 0;
#X obj 13 5 inlet;
#X msg 32 57 4;
#X obj 32 79 until;
#X obj 32 124 list prepend;
#X obj 116 124 t l;
#X obj 13 146 list;
#X obj 13 27 t b b b;
#X obj 13 168 outlet;
#X msg 66 57 bang;
#X obj 32 102 u_seededrandom 13 \$1/seed;
#X connect 0 0 6 0;
#X connect 1 0 2 0;
#X connect 2 0 9 0;
#X connect 3 0 4 0;
#X connect 3 0 5 1;
#X connect 4 0 3 1;
#X connect 5 0 7 0;
#X connect 6 0 5 0;
#X connect 6 1 1 0;
#X connect 6 2 8 0;
#X connect 8 0 3 1;
#X connect 9 0 3 0;
#X restore 935 263 pd picknotes;
#X obj 935 285 s \$1/goodnotes;
#X obj 783 304 r \$1/pickrootnote;
#X obj 783 326 u_seededrandom 24 \$1/seed;
#X obj 783 348 + 48;
#X msg 47 281 \$1 2;
#X obj 287 160 r \$1/decay;
#X obj 278 186 t f f f;
#X obj 317 226 s \$1/decay/set;
#X msg 317 206 set \$1;
#X obj 894 467 u_fractal-melody 4 16 \$1/seed;
#X obj 309 255 r \$1/envmod;
#X msg 526 511 \; \$1/pickslide bang \; \$1/pickoctave bang \; \$1/pickaccent
bang \; \$1/picksequence bang \; \$1/picknotes bang \; \$1/pickwave
bang \; \$1/pickswing bang \; \$1/pickdecay bang \; \$1/pickrootnote
bang \;;
#X connect 0 0 17 0;
#X connect 0 1 6 0;
#X connect 0 1 17 1;
#X connect 0 2 21 0;
#X connect 1 0 3 0;
#X connect 2 0 1 2;
#X connect 2 1 4 0;
#X connect 3 0 18 0;
#X connect 4 0 3 1;
#X connect 5 0 16 0;
#X connect 6 0 7 1;
#X connect 6 0 15 0;
#X connect 6 1 8 0;
#X connect 6 1 34 0;
#X connect 7 0 1 0;
#X connect 8 0 9 0;
#X connect 9 0 2 0;
#X connect 15 0 16 0;
#X connect 16 0 1 1;
#X connect 17 0 24 0;
#X connect 17 0 35 0;
#X connect 18 0 27 0;
#X connect 19 0 73 0;
#X connect 20 0 19 0;
#X connect 21 0 22 0;
#X connect 21 0 23 0;
#X connect 22 0 8 1;
#X connect 23 0 15 1;
#X connect 24 0 7 0;
#X connect 24 1 7 0;
#X connect 27 0 51 0;
#X connect 28 0 71 0;
#X connect 29 0 9 1;
#X connect 30 0 0 0;
#X connect 32 0 50 0;
#X connect 33 0 62 0;
#X connect 42 0 40 0;
#X connect 44 0 38 0;
#X connect 46 0 47 0;
#X connect 48 0 45 0;
#X connect 52 0 54 0;
#X connect 54 0 78 0;
#X connect 55 0 52 0;
#X connect 56 0 52 0;
#X connect 57 0 39 0;
#X connect 58 0 76 0;
#X connect 60 0 61 0;
#X connect 61 0 76 1;
#X connect 62 0 20 0;
#X connect 65 0 66 0;
#X connect 66 0 67 0;
#X connect 68 0 69 0;
#X connect 69 0 70 0;
#X connect 70 0 41 0;
#X connect 71 0 5 0;
#X connect 72 0 73 0;
#X connect 73 0 17 2;
#X connect 73 1 6 1;
#X connect 73 2 75 0;
#X connect 75 0 74 0;
#X connect 76 0 64 0;
#X connect 77 0 22 1;
