#N canvas 214 299 649 402 10;
#X declare -path .;
#X declare -path ./common/;
#X declare -path ./blockhead/;
#X declare -path ./rjlib/rj;
#X obj 532 266 catch~ acid/out;
#X obj 532 350 dac~;
#X obj 20 7 acid-core acid;
#X obj 20 109 f;
#X obj 50 109 + 1;
#X obj 20 131 s acid/tick;
#X obj 20 66 tgl 15 0 empty empty empty 17 7 0 10 -260097 -1 -1 0 1
;
#X obj 20 87 metro 150;
#X msg 137 104 \; acid/pickslide bang \; acid/pickoctave bang \; acid/pickaccent
bang \; acid/picksequence bang \; acid/picknotes bang \; acid/pickrootnote
bang \; acid/pickwave bang \; acid/pickswing bang \; acid/pickdecay
bang \;;
#X text 134 83 randomize;
#X text 41 65 <- start timer;
#X floatatom 20 29 5 0 0 0 - - -, f 5;
#X text 18 266 table names and internal data to modify:;
#X msg 21 285 \; acid/slide = 0 or 1 length 16 \; acid/accent = 0 or
1 length 16 \; acid/octave = 0 to 2 length 16 \; acid/sequence = 0
to 4 where 0 is a rest note length 16 \; acid/notes = lookup table
for sequence = 0 to 12 length 4 \;;
#X text 464 325 output ->;
#X text 332 117 (same each Pd start);
#X obj 561 302 hsl 64 15 1 20 0 1 empty empty distortion -2 -8 0 10
-262144 -1 -1 500 1;
#N canvas 2 50 450 300 seed 0;
#X obj 7 109 nbx 7 14 -1e+37 1e+37 0 1 empty empty empty 0 -8 0 10
-262144 -1 -1 1039 256;
#X obj 7 58 inlet;
#X obj 7 138 outlet;
#X obj 7 79 random 65536;
#X connect 0 0 2 0;
#X connect 1 0 3 0;
#X connect 3 0 0 0;
#X coords 0 -1 1 1 85 30 2 0 100;
#X restore 297 141 pd seed;
#X msg 297 175 \; acid/seed \$1 \; acid/makenew bang \;;
#X obj 297 103 bng 32 250 50 0 empty empty empty 17 7 0 10 -260097
-1 -1;
#X text 118 8 <- 303-style acid instrument;
#X text 333 101 deterministic seed;
#X obj 532 328 e_foldover;
#X obj 494 131 s acid/globaloctave;
#X obj 497 36 hsl 128 15 0 127 0 1 acid/cutoff empty acid/cutoff -2
-8 0 10 -262144 -1 -1 8200 1;
#X obj 497 67 hsl 128 15 0 127 0 1 acid/rez empty acid/rez -2 -8 0
10 -262144 -1 -1 1000 1;
#X obj 494 91 hradio 15 1 1 6 empty empty empty 0 -8 0 10 -262144 -1
-1 2;
#X obj 494 111 - 2;
#X text 442 35 play ->;
#X obj 497 203 hsl 128 15 0 300 0 0 acid/decay acid/decay/set acid/decay
-2 -8 0 10 -262144 -1 -1 6731 1;
#X obj 497 173 hsl 128 15 0 1 0 0 acid/swing acid/swing/set acid/swing
-2 -8 0 10 -262144 -1 -1 0 1;
#X obj 495 235 hradio 15 1 0 2 acid/wave acid/wave/set sqr/saw 0 -8
0 10 -262144 -1 -1 0;
#X connect 0 0 22 0;
#X connect 2 0 11 0;
#X connect 3 0 4 0;
#X connect 3 0 5 0;
#X connect 4 0 3 1;
#X connect 6 0 7 0;
#X connect 7 0 3 0;
#X connect 16 0 22 1;
#X connect 17 0 18 0;
#X connect 19 0 17 0;
#X connect 22 0 1 0;
#X connect 22 0 1 1;
#X connect 26 0 27 0;
#X connect 27 0 23 0;
