#N canvas 845 57 454 303 10;
#X declare -path ./pd-net-sync/;
#X declare -path .;
#X declare -path ./common/;
#X declare -path ./blockhead/;
#X declare -path ./rjlib/rj;
#X obj 13 63 hsl 128 32 0 127 0 0 \$0/cutoff acid/cutoff/r cutoff -2
-8 0 10 -262144 -1 -1 9200 1;
#X obj 156 63 hsl 128 32 0 127 0 0 \$0/rez empty rez -2 -8 0 10 -262144
-1 -1 0 1;
#N canvas 116 86 834 601 hookup 0;
#X obj 15 66 r \$0/new;
#X obj 176 34 / 2;
#X obj 18 230 t f f;
#X obj 45 398 s acid/tick;
#X obj 176 54 s acid/bpm;
#X obj 392 550 s acid/rootnote;
#X obj 529 13 connect rez \$0 acid;
#X obj 511 36 connect cutoff \$0 acid;
#X obj 45 284 / 2;
#X obj 45 306 int;
#X obj 45 328 change;
#X obj 60 259 r \$0/pace;
#X obj 176 105 s acid/globaloctave;
#X obj 176 83 r \$0/octave;
#X obj 15 11 r wordbutton-randomize;
#X obj 15 33 s \$0/new;
#X obj 176 12 r timer-1/bpm;
#X obj 18 178 r timer-1/sub-tick;
#X obj 18 200 / 3;
#X obj 547 573 dac~;
#X obj 547 551 catch~ acid/out;
#X msg 140 488 \; ticker pos \$1 \$2 \;;
#X obj 140 374 mod 16;
#X obj 140 417 + 10;
#X obj 140 467 spigot 1;
#X obj 210 442 tgl 15 1 empty empty empty 17 7 0 10 -262144 -1 -1 1
1;
#X obj 140 396 * 29;
#X obj 140 442 pack f 280;
#X obj 45 350 t f f;
#X msg 15 88 \; acid/pickslide bang \; acid/pickaccent bang \; acid/pickoctave
bang \; acid/pickdecay bang \; acid/picksequence bang \;;
#X obj 392 507 loadbang;
#X obj 226 554 s acid/newsequence;
#X obj 217 165 r \$0/decay;
#X obj 217 232 s acid/decay;
#X obj 217 187 * 2;
#X obj 481 382 r acid/goodnotes;
#N canvas 2 48 450 300 set-notes 0;
#X obj 10 4 inlet;
#X obj 10 56 list split 1;
#X obj 44 78 t l;
#X obj 10 101 t b f;
#X obj 10 123 f;
#X obj 10 145 + 1;
#X obj 10 190 pack f f;
#X obj 10 26 t a b;
#X msg 65 111 0;
#X msg 10 214 \; note-\$1-set set \$2;
#X obj 55 162 - 1;
#X connect 0 0 7 0;
#X connect 1 0 3 0;
#X connect 1 1 2 0;
#X connect 2 0 1 0;
#X connect 3 0 4 0;
#X connect 3 1 10 0;
#X connect 4 0 5 0;
#X connect 5 0 4 1;
#X connect 5 0 6 0;
#X connect 6 0 9 0;
#X connect 7 0 1 0;
#X connect 7 1 8 0;
#X connect 8 0 4 1;
#X connect 10 0 6 1;
#X restore 481 426 pd set-notes;
#X obj 217 254 r acid/decay/set;
#X obj 217 301 / 2;
#X msg 217 323 \; acid/decay/r set \$1;
#X obj 217 209 + 50;
#X obj 217 276 - 50;
#X obj 481 404 spigot 1;
#X obj 499 350 s acid/goodnotes;
#X obj 480 307 t b a b;
#X msg 519 329 0;
#X msg 480 329 1;
#N canvas 2 48 450 339 compact-incoming-notes 0;
#X obj 16 286 pack f f f f;
#X obj 33 84 t b f;
#X obj 67 154 t b f;
#X obj 118 223 t b f;
#X obj 16 14 r note-1/idx;
#X obj 33 62 r note-2/idx;
#X obj 67 132 r note-3/idx;
#X obj 118 201 r note-4/idx;
#X obj 145 247 + 1;
#X obj 16 308 outlet;
#X obj 94 177 + 1;
#X obj 60 104 + 1;
#X obj 16 36 + 1;
#X connect 0 0 9 0;
#X connect 1 0 0 0;
#X connect 1 1 11 0;
#X connect 2 0 0 0;
#X connect 2 1 10 0;
#X connect 3 0 0 0;
#X connect 3 1 8 0;
#X connect 4 0 12 0;
#X connect 5 0 1 0;
#X connect 6 0 2 0;
#X connect 7 0 3 0;
#X connect 8 0 0 3;
#X connect 10 0 0 2;
#X connect 11 0 0 1;
#X connect 12 0 0 0;
#X restore 480 283 pd compact-incoming-notes;
#X msg 357 21 \; acid/makenew bang \;;
#X obj 398 96 mtof;
#X msg 398 74 60;
#X msg 392 529 60;
#X obj 412 129 phasor~;
#X obj 504 125 r \$0/swing;
#X obj 504 227 s acid/swing;
#X obj 575 125 r timer-1/bpm;
#X obj 575 147 expr 60000 / $f1;
#X obj 504 204 f;
#X obj 504 177 sel 1;
#X obj 504 153 f;
#X obj 575 169 t b f;
#X obj 602 191 / 12;
#X connect 0 0 29 0;
#X connect 1 0 4 0;
#X connect 2 1 8 0;
#X connect 8 0 9 0;
#X connect 9 0 10 0;
#X connect 10 0 28 0;
#X connect 11 0 8 1;
#X connect 13 0 12 0;
#X connect 14 0 15 0;
#X connect 16 0 1 0;
#X connect 17 0 18 0;
#X connect 18 0 2 0;
#X connect 20 0 19 0;
#X connect 20 0 19 1;
#X connect 22 0 26 0;
#X connect 23 0 27 0;
#X connect 24 0 21 0;
#X connect 25 0 24 1;
#X connect 26 0 23 0;
#X connect 27 0 24 0;
#X connect 28 0 3 0;
#X connect 28 1 22 0;
#X connect 30 0 51 0;
#X connect 32 0 34 0;
#X connect 34 0 40 0;
#X connect 35 0 42 0;
#X connect 37 0 41 0;
#X connect 38 0 39 0;
#X connect 40 0 33 0;
#X connect 41 0 38 0;
#X connect 42 0 36 0;
#X connect 44 0 46 0;
#X connect 44 1 43 0;
#X connect 44 2 45 0;
#X connect 45 0 42 1;
#X connect 46 0 42 1;
#X connect 47 0 44 0;
#X connect 49 0 52 0;
#X connect 50 0 49 0;
#X connect 51 0 5 0;
#X connect 53 0 59 0;
#X connect 55 0 56 0;
#X connect 56 0 60 0;
#X connect 57 0 54 0;
#X connect 58 0 57 0;
#X connect 58 1 54 0;
#X connect 59 0 58 0;
#X connect 60 0 59 0;
#X connect 60 1 61 0;
#X connect 61 0 57 1;
#X restore 49 309 pd hookup;
#X obj 13 113 hsl 128 32 0 127 0 0 \$0/decay acid/decay/r decay -2
-8 0 10 -262144 -1 -1 2100 1;
#X obj 154 114 nbx 5 32 1 4 0 0 \$0/pace acid/pace/r pace 0 -8 0 10
-262144 -1 -1 2 256;
#X obj 224 114 nbx 5 32 -2 4 0 0 \$0/octave acid/octave/r octave 0
-8 0 10 -262144 -1 -1 0 256;
#X obj 10 9 wordbutton 140 32 randomize;
#X obj 297 26 taplist 64 28 note-1-set note-1 C C# D D# E F F# G G#
A A# B;
#X obj 297 56 taplist 64 28 note-2-set note-2 C C# D D# E F F# G G#
A A# B;
#X obj 297 87 taplist 64 28 note-3-set note-3 C C# D D# E F F# G G#
A A# B;
#X obj 297 118 taplist 64 28 note-4-set note-4 C C# D D# E F F# G G#
A A# B;
#X text 315 5 key;
#N canvas 2 48 450 300 net 0;
#X obj 262 11 declare -path ./pd-net-sync/;
#X obj 34 89 netsync note-1 note-1/idx note-1-set;
#X obj 34 109 netsync note-2 note-2/idx note-2-set;
#X obj 34 129 netsync note-3 note-3/idx note-3-set;
#X obj 34 149 netsync note-4 note-4/idx note-4-set;
#X obj 33 66 netro timer-1 140;
#X restore 4 309 pd net;
#X obj 10 280 cnv 8 24 16 empty ticker empty 20 12 0 14 -258113 -66577
0;
#X obj 116 309 acid-core acid;
#X obj 254 9 tgl 32 0 \$0/swing acid/swing/r swing 0 40 0 10 -262144
-1 -1 0 1;
#X obj 371 6 numberbox 64 32 timer-1/bpm_r timer-1/bpm 30 320 140;
#X obj 10 159 tgl 24 0 \$0/slide/0 acid/slide/0/r empty 17 7 0 10 -262144
-1 -1 0 1;
#X obj 36 159 tgl 24 0 \$0/slide/0 acid/slide/0/r empty 17 7 0 10 -262144
-1 -1 0 1;
#X obj 62 159 tgl 24 0 \$0/slide/0 acid/slide/0/r empty 17 7 0 10 -262144
-1 -1 0 1;
#X obj 88 159 tgl 24 0 \$0/slide/0 acid/slide/0/r empty 17 7 0 10 -262144
-1 -1 0 1;
#X obj 120 159 tgl 24 0 \$0/slide/0 acid/slide/0/r empty 17 7 0 10
-262144 -1 -1 0 1;
#X obj 146 159 tgl 24 0 \$0/slide/0 acid/slide/0/r empty 17 7 0 10
-262144 -1 -1 0 1;
#X obj 172 159 tgl 24 0 \$0/slide/0 acid/slide/0/r empty 17 7 0 10
-262144 -1 -1 0 1;
#X obj 198 159 tgl 24 0 \$0/slide/0 acid/slide/0/r empty 17 7 0 10
-262144 -1 -1 0 1;
#X obj 230 159 tgl 24 0 \$0/slide/0 acid/slide/0/r empty 17 7 0 10
-262144 -1 -1 0 1;
#X obj 256 159 tgl 24 0 \$0/slide/0 acid/slide/0/r empty 17 7 0 10
-262144 -1 -1 0 1;
#X obj 282 159 tgl 24 0 \$0/slide/0 acid/slide/0/r empty 17 7 0 10
-262144 -1 -1 0 1;
#X obj 308 159 tgl 24 0 \$0/slide/0 acid/slide/0/r empty 17 7 0 10
-262144 -1 -1 0 1;
#X obj 339 159 tgl 24 0 \$0/slide/0 acid/slide/0/r empty 17 7 0 10
-262144 -1 -1 0 1;
#X obj 365 159 tgl 24 0 \$0/slide/0 acid/slide/0/r empty 17 7 0 10
-262144 -1 -1 0 1;
#X obj 391 159 tgl 24 0 \$0/slide/0 acid/slide/0/r empty 17 7 0 10
-262144 -1 -1 0 1;
#X obj 417 159 tgl 24 0 \$0/slide/0 acid/slide/0/r empty 17 7 0 10
-262144 -1 -1 0 1;
#X obj 10 220 taplist 24 24 acid/octave/0/r \$0/octave/0 lo -- hi;
#X obj 10 189 tgl 24 0 \$0/slide/0 acid/slide/0/r empty 17 7 0 10 -262144
-1 -1 0 1;
#X obj 36 189 tgl 24 0 \$0/slide/0 acid/slide/0/r empty 17 7 0 10 -262144
-1 -1 0 1;
#X obj 62 189 tgl 24 0 \$0/slide/0 acid/slide/0/r empty 17 7 0 10 -262144
-1 -1 0 1;
#X obj 88 189 tgl 24 0 \$0/slide/0 acid/slide/0/r empty 17 7 0 10 -262144
-1 -1 0 1;
#X obj 120 189 tgl 24 0 \$0/slide/0 acid/slide/0/r empty 17 7 0 10
-262144 -1 -1 0 1;
#X obj 146 189 tgl 24 0 \$0/slide/0 acid/slide/0/r empty 17 7 0 10
-262144 -1 -1 0 1;
#X obj 172 189 tgl 24 0 \$0/slide/0 acid/slide/0/r empty 17 7 0 10
-262144 -1 -1 0 1;
#X obj 198 189 tgl 24 0 \$0/slide/0 acid/slide/0/r empty 17 7 0 10
-262144 -1 -1 0 1;
#X obj 230 189 tgl 24 0 \$0/slide/0 acid/slide/0/r empty 17 7 0 10
-262144 -1 -1 0 1;
#X obj 256 189 tgl 24 0 \$0/slide/0 acid/slide/0/r empty 17 7 0 10
-262144 -1 -1 0 1;
#X obj 282 189 tgl 24 0 \$0/slide/0 acid/slide/0/r empty 17 7 0 10
-262144 -1 -1 0 1;
#X obj 308 189 tgl 24 0 \$0/slide/0 acid/slide/0/r empty 17 7 0 10
-262144 -1 -1 0 1;
#X obj 339 189 tgl 24 0 \$0/slide/0 acid/slide/0/r empty 17 7 0 10
-262144 -1 -1 0 1;
#X obj 365 189 tgl 24 0 \$0/slide/0 acid/slide/0/r empty 17 7 0 10
-262144 -1 -1 0 1;
#X obj 391 189 tgl 24 0 \$0/slide/0 acid/slide/0/r empty 17 7 0 10
-262144 -1 -1 0 1;
#X obj 417 189 tgl 24 0 \$0/slide/0 acid/slide/0/r empty 17 7 0 10
-262144 -1 -1 0 1;
#X obj 36 220 taplist 24 24 acid/octave/0/r \$0/octave/0 lo -- hi;
#X obj 62 220 taplist 24 24 acid/octave/0/r \$0/octave/0 lo -- hi;
#X obj 88 220 taplist 24 24 acid/octave/0/r \$0/octave/0 lo -- hi;
#X obj 120 220 taplist 24 24 acid/octave/0/r \$0/octave/0 lo -- hi
;
#X obj 146 220 taplist 24 24 acid/octave/0/r \$0/octave/0 lo -- hi
;
#X obj 172 220 taplist 24 24 acid/octave/0/r \$0/octave/0 lo -- hi
;
#X obj 198 220 taplist 24 24 acid/octave/0/r \$0/octave/0 lo -- hi
;
#X obj 230 220 taplist 24 24 acid/octave/0/r \$0/octave/0 lo -- hi
;
#X obj 256 220 taplist 24 24 acid/octave/0/r \$0/octave/0 lo -- hi
;
#X obj 282 220 taplist 24 24 acid/octave/0/r \$0/octave/0 lo -- hi
;
#X obj 308 220 taplist 24 24 acid/octave/0/r \$0/octave/0 lo -- hi
;
#X obj 340 220 taplist 24 24 acid/octave/0/r \$0/octave/0 lo -- hi
;
#X obj 366 220 taplist 24 24 acid/octave/0/r \$0/octave/0 lo -- hi
;
#X obj 392 220 taplist 24 24 acid/octave/0/r \$0/octave/0 lo -- hi
;
#X obj 418 220 taplist 24 24 acid/octave/0/r \$0/octave/0 lo -- hi
;
#X obj 10 250 taplist 24 24 acid/octave/0/r \$0/octave/0 lo -- hi;
#X obj 36 250 taplist 24 24 acid/octave/0/r \$0/octave/0 lo -- hi;
#X obj 62 250 taplist 24 24 acid/octave/0/r \$0/octave/0 lo -- hi;
#X obj 88 250 taplist 24 24 acid/octave/0/r \$0/octave/0 lo -- hi;
#X obj 120 250 taplist 24 24 acid/octave/0/r \$0/octave/0 lo -- hi
;
#X obj 146 250 taplist 24 24 acid/octave/0/r \$0/octave/0 lo -- hi
;
#X obj 172 250 taplist 24 24 acid/octave/0/r \$0/octave/0 lo -- hi
;
#X obj 198 250 taplist 24 24 acid/octave/0/r \$0/octave/0 lo -- hi
;
#X obj 230 250 taplist 24 24 acid/octave/0/r \$0/octave/0 lo -- hi
;
#X obj 256 250 taplist 24 24 acid/octave/0/r \$0/octave/0 lo -- hi
;
#X obj 282 250 taplist 24 24 acid/octave/0/r \$0/octave/0 lo -- hi
;
#X obj 308 250 taplist 24 24 acid/octave/0/r \$0/octave/0 lo -- hi
;
#X obj 340 250 taplist 24 24 acid/octave/0/r \$0/octave/0 lo -- hi
;
#X obj 366 250 taplist 24 24 acid/octave/0/r \$0/octave/0 lo -- hi
;
#X obj 392 250 taplist 24 24 acid/octave/0/r \$0/octave/0 lo -- hi
;
#X obj 418 250 taplist 24 24 acid/octave/0/r \$0/octave/0 lo -- hi
;
#X coords 0 -1 1 1 450 300 1 0 0;
