#N canvas 385 124 450 300 10;
#X obj 10 6 inlet;
#X obj 42 51 s table-\$1;
#X obj 10 28 t a a;
#X obj 10 123 s \$1;
#X obj 10 80 list prepend 0;
#X obj 10 101 list trim;
#X connect 0 0 2 0;
#X connect 2 0 4 0;
#X connect 2 1 1 0;
#X connect 4 0 5 0;
#X connect 5 0 3 0;
