#N canvas 286 123 450 300 10;
#X obj 7 9 inlet;
#X obj 7 244 random \$1;
#X obj 96 39 r SEED;
#X msg 96 139 seed \$1;
#X obj 96 62 t f b;
#X obj 7 267 outlet;
#X obj 286 9 inlet;
#X obj 96 108 +;
#X obj 114 87 random 2e+32;
#X connect 0 0 1 0;
#X connect 1 0 5 0;
#X connect 2 0 4 0;
#X connect 3 0 1 0;
#X connect 4 0 7 0;
#X connect 4 1 8 0;
#X connect 6 0 1 1;
#X connect 7 0 3 0;
#X connect 8 0 7 1;
